# xmcd
#
# Track frame offsets: 
#        150
#        32691
#        54642
#        73459
#        97131
#        125571
#        154233
#        182448
#        207104
#        230688
#        260103
#
# Disc length: 4172 seconds
#
# Revision: 0
# Processed by: cddbd v1.5.2PL0 Copyright (c) Steve Scherf et al.
# Submitted via: ExactAudioCopy v0.99pb5
#
DISCID=a7104a0b
DTITLE=Barbecue Bob Maglinte and The Rhythm Aces - Live At The Waterfron
DTITLE=t
DYEAR=2007
DGENRE=Blues
TTITLE0=Chromo Jump
TTITLE1=Honey
TTITLE2=Same Old Blues
TTITLE3=Walk With My Baby
TTITLE4=Goin' Down Slow
TTITLE5=Tramp Groovin'
TTITLE6=Sad To Be Alone
TTITLE7=Love You Baby
TTITLE8=Loner
TTITLE9=Beautician Blues
TTITLE10=Shufflin'
EXTD=
EXTT0=
EXTT1=
EXTT2=
EXTT3=
EXTT4=
EXTT5=
EXTT6=
EXTT7=
EXTT8=
EXTT9=
EXTT10=
PLAYORDER=
